<svg version="1.1" xmlns="http://www.w3.org/2000/svg" style="display: block;" viewBox="0 0 2048 1834" width="1339" height="1199" preserveAspectRatio="none">
<defs>
	<linearGradient id="Gradient1" gradientUnits="userSpaceOnUse" x1="1303.18" y1="1395.02" x2="1303.8" y2="1313.98">
		<stop class="stop0" offset="0" stop-opacity="1" stop-color="rgb(66,176,70)"/>
		<stop class="stop1" offset="1" stop-opacity="1" stop-color="rgb(122,193,117)"/>
	</linearGradient>
	<linearGradient id="Gradient2" gradientUnits="userSpaceOnUse" x1="929.231" y1="564.189" x2="929.747" y2="593.583">
		<stop class="stop0" offset="0" stop-opacity="1" stop-color="rgb(117,69,142)"/>
		<stop class="stop1" offset="1" stop-opacity="1" stop-color="rgb(148,118,169)"/>
	</linearGradient>
	<linearGradient id="Gradient3" gradientUnits="userSpaceOnUse" x1="1078.33" y1="683.521" x2="757.755" y2="674.984">
		<stop class="stop0" offset="0" stop-opacity="1" stop-color="rgb(247,217,47)"/>
		<stop class="stop1" offset="1" stop-opacity="1" stop-color="rgb(236,145,96)"/>
	</linearGradient>
	<linearGradient id="Gradient4" gradientUnits="userSpaceOnUse" x1="877.184" y1="635.16" x2="1304.16" y2="645.587">
		<stop class="stop0" offset="0" stop-opacity="1" stop-color="rgb(170,119,179)"/>
		<stop class="stop1" offset="1" stop-opacity="1" stop-color="rgb(113,217,218)"/>
	</linearGradient>
</defs>
<path transform="translate(0,0)" fill="rgb(250,249,249)" d="M 0 0 L 2048 0 L 2048 1834 L 0 1834 L 0 0 z"/>
<path transform="translate(0,0)" fill="rgb(0,124,194)" d="M 257.343 917.393 C 258.035 883.083 259.453 851.61 263.952 817.349 C 286.744 642.751 369.092 481.369 497.09 360.454 C 642.654 222.326 836.68 146.95 1037.32 150.585 C 1243.07 154 1438.77 240.203 1580.17 389.712 C 1718.3 534.063 1788.22 718.86 1790.5 917.504 L 1942.6 917.802 L 1810.41 1082.02 C 1795.59 1100.49 1781.07 1119.36 1765.53 1137.2 C 1764.85 1137.98 1759.37 1137.99 1758.07 1137.98 C 1752.75 1153.83 1748.53 1168.29 1742.54 1184.37 C 1723.98 1234 1700.36 1281.58 1672.06 1326.37 C 1563.32 1498.36 1390.75 1620.15 1192.27 1664.99 C 993.673 1709.54 785.509 1673.38 613.573 1564.46 C 483.83 1481.98 381.74 1362.57 320.447 1221.58 C 311.338 1200.5 295.339 1160.36 290.307 1138.02 C 289.197 1138.03 282.933 1138.05 282.368 1137.36 C 223.685 1065.46 163.469 990.072 105.585 917.929 C 156.028 916.909 206.866 918.22 257.343 917.393 z"/>
<path transform="translate(0,0)" fill="rgb(67,147,107)" d="M 257.343 917.393 C 258.035 883.083 259.453 851.61 263.952 817.349 C 286.744 642.751 369.092 481.369 497.09 360.454 C 642.654 222.326 836.68 146.95 1037.32 150.585 C 1243.07 154 1438.77 240.203 1580.17 389.712 C 1718.3 534.063 1788.22 718.86 1790.5 917.504 C 1774.86 917.612 1759.22 917.523 1743.59 917.237 C 1741.92 877.442 1741.32 850.137 1735.24 809.525 C 1712.7 659.469 1643.16 520.424 1536.62 412.379 C 1403.75 277.088 1222.69 199.959 1033.07 197.879 C 841.248 195.244 656.349 269.503 519.634 404.086 C 381.866 539.376 304.453 724.491 304.895 917.579 C 289.046 917.325 273.194 917.263 257.343 917.393 z"/>
<path transform="translate(0,0)" fill="rgb(67,147,107)" d="M 290.307 1138.02 L 339.234 1137.9 C 402.498 1325.21 528.672 1474.51 706.415 1562.97 C 877.413 1646.38 1074.37 1659.13 1254.7 1598.47 C 1435.85 1536.9 1585.14 1405.9 1669.73 1234.29 C 1682.97 1207.36 1700.22 1166.91 1708.71 1138.04 L 1758.07 1137.98 C 1752.75 1153.83 1748.53 1168.29 1742.54 1184.37 C 1723.98 1234 1700.36 1281.58 1672.06 1326.37 C 1563.32 1498.36 1390.75 1620.15 1192.27 1664.99 C 993.673 1709.54 785.509 1673.38 613.573 1564.46 C 483.83 1481.98 381.74 1362.57 320.447 1221.58 C 311.338 1200.5 295.339 1160.36 290.307 1138.02 z"/>
<path transform="translate(0,0)" fill="rgb(250,249,249)" d="M 116.464 922.819 L 1931.32 922.913 C 1901.93 961.371 1868.53 1001.37 1837.98 1039.28 L 1763.05 1132.46 C 1708.17 1131.4 1649.93 1132.36 1594.88 1132.36 L 1268.82 1132.36 L 284.564 1132.36 C 276.058 1122.1 267.588 1111.49 259.334 1101.02 C 212.261 1041.31 163.114 982.824 116.464 922.819 z"/>
<path transform="translate(0,0)" fill="rgb(63,147,157)" d="M 593.934 980.194 C 608.106 979.333 629.266 978.561 642.189 984.753 C 686.246 1005.86 665.511 1059.83 628.691 1074.4 C 610.065 1079.82 591.649 1077.44 572.813 1075.29 C 584.656 1046.96 585.75 1030.62 584.656 999.631 C 579.351 999.84 574.346 1000.58 569.089 1001.26 C 575.45 994.614 585.361 982.52 593.934 980.194 z"/>
<path transform="translate(0,0)" fill="rgb(250,249,249)" d="M 610.809 997.963 C 639.744 997.032 646.068 1032.22 628.066 1052.12 C 623.314 1055.77 613.021 1062.36 607.688 1057.22 C 606.951 1047.61 609.739 1008.98 610.809 997.963 z"/>
<path transform="translate(0,0)" fill="rgb(63,147,157)" d="M 765.147 979.353 C 777.556 978.382 788.672 981.151 799.365 987.355 L 799.726 1009.76 C 789.135 1005.04 768.612 994.163 758.202 1001.74 C 740.613 1014.56 743.779 1054.15 767.69 1058.72 C 770.791 1059.32 771.287 1058.82 773.546 1057.2 C 775.351 1053.81 775.863 1053.39 775.679 1049.73 C 773.15 1046.49 771.244 1046.62 766.835 1045.05 C 766.104 1040.84 767.88 1032.15 768.604 1027.54 C 780.357 1026.58 792.75 1025.2 804.453 1026.09 L 808.935 1027.48 C 812.33 1031.86 812.667 1045.51 804.406 1045.34 C 799.699 1046.92 804.25 1062.52 800.614 1065.35 C 771.431 1088.08 724.519 1079.58 718.991 1040.01 C 716.967 1024.79 721.094 1009.39 730.46 997.216 C 740.046 985.014 750.299 981.034 765.147 979.353 z"/>
<path transform="translate(0,0)" fill="rgb(63,147,157)" d="M 1255.01 980.186 C 1257.29 979.656 1256.16 979.605 1258.38 980.339 C 1259.24 985.886 1258.39 1001.95 1258.19 1008.74 C 1257.76 1028.22 1256.99 1047.7 1255.85 1067.16 C 1249.46 1072.7 1244.95 1075.44 1237.35 1078.8 C 1228.13 1067.13 1215.12 1045.29 1206.71 1031.99 C 1203.53 1042.5 1203.21 1056.29 1202.49 1067.44 C 1197.26 1069.68 1185.53 1075.45 1180.65 1074.12 L 1180.38 1071.69 C 1184.3 1054.96 1188.35 1006.43 1182.54 990.556 C 1189.31 987.396 1196.22 983.813 1202.92 980.458 C 1215.11 997.988 1223.86 1017.29 1236.16 1035.32 C 1237.5 1021.83 1236.34 999.236 1236.16 984.848 L 1255.01 980.186 z"/>
<path transform="translate(0,0)" fill="rgb(63,147,157)" d="M 462.771 980.44 L 466.403 980.256 C 468.828 984.235 467.023 1005.26 466.838 1011.68 C 472.885 1006.62 485.09 993.573 491.392 987.343 C 502.987 987.093 511.654 987.206 523.178 985.542 C 513.033 997.748 500.408 1010.55 489.371 1022.15 C 494.457 1030.83 520.355 1070.5 519.098 1076.95 L 516.728 1076.7 C 510.267 1074.36 505.293 1073.5 498.563 1072.75 L 467.52 1040.64 C 463.327 1050.84 463.537 1059.93 462.836 1070.86 C 453.466 1073.63 443.643 1076.22 434.202 1078.83 C 442.397 1045.29 442.003 1016.49 442.019 982.14 C 448.615 981.346 456.077 980.943 462.771 980.44 z"/>
<path transform="translate(0,0)" fill="rgb(63,147,157)" d="M 1612.15 980.237 L 1614 980.406 C 1616.15 983.406 1614.98 1001.38 1615.17 1006.3 C 1616.25 1037.26 1603.53 1077.08 1566.51 1077.49 C 1526.88 1077.94 1536.23 1035.32 1538.73 1008.69 L 1540.15 991.468 C 1549.21 988.196 1556.58 987.182 1565.96 985.771 C 1565.77 994.628 1561 1054.11 1565.69 1056.67 C 1597.65 1074.14 1590.04 1001.85 1588.99 986.806 C 1597.95 983.698 1602.86 982.174 1612.15 980.237 z"/>
<path transform="translate(0,0)" fill="rgb(63,147,157)" d="M 305.085 980.257 C 331.486 977.3 362.44 988.796 345.655 1023.1 C 339.269 1036.15 318.869 1040.73 305.244 1043.53 C 304.259 1051.29 303.198 1059.05 302.062 1066.79 C 298.77 1071.51 283.369 1075.58 277.231 1077.53 C 279.603 1065.45 285.893 1015.68 283.807 1004.83 C 281.094 1004.08 276.918 1005.94 274.019 1006.89 C 275.239 1000.47 276.525 994.058 277.878 987.663 C 286.778 984.073 295.713 982.109 305.085 980.257 z"/>
<path transform="translate(0,0)" fill="rgb(250,249,249)" d="M 307.527 996.28 C 324.955 997.587 333.07 1007.69 319.244 1021.76 C 314.762 1024.77 310.997 1026.03 306.026 1027.95 L 307.527 996.28 z"/>
<path transform="translate(0,0)" fill="rgb(63,147,157)" d="M 1752.88 981.505 C 1760.94 981.368 1769.23 980.905 1777.31 980.555 C 1764.4 1003.04 1760.76 998.851 1736.88 999.939 C 1735.52 1007.85 1735.19 1011.09 1735.02 1019.11 C 1741.79 1018.91 1749.35 1018.23 1756.14 1017.73 C 1753.41 1026.17 1751.17 1031.07 1747.28 1039.06 C 1741 1038.55 1737.99 1037.27 1733.17 1041.88 C 1731.38 1046.43 1731.99 1051.36 1732.1 1056.38 C 1747.75 1058.24 1756.72 1059.17 1772.02 1055.88 C 1768.06 1062.4 1764.18 1068.97 1760.36 1075.58 L 1759.41 1076.59 C 1744.31 1079.71 1712.41 1077.19 1696.92 1074.09 C 1702.53 1063.13 1714.07 1044.72 1700.54 1036.16 C 1699.96 1032.31 1708.11 1019.06 1708.93 1013.99 C 1709.67 1009.36 1709.54 1004.8 1709.53 1000.16 C 1704.37 1000.59 1701.51 1002.1 1699.84 997.012 C 1701.04 991.758 1707.34 986.022 1711.25 982.058 C 1724.13 981.313 1739.79 981.591 1752.88 981.505 z"/>
<path transform="translate(0,0)" fill="rgb(63,147,157)" d="M 401.165 981.236 C 402.939 980.939 403.706 981.053 405.513 981.072 C 410.479 985.491 430.17 1060.59 432.954 1072.14 C 423.862 1073.27 419.8 1074.42 411.583 1078.22 L 406.749 1061.89 C 399.116 1061.98 391.196 1060.71 383.594 1059.72 C 374.167 1062.46 373.485 1068.39 370.152 1076.91 C 363.427 1073.35 360.063 1071.59 352.95 1069.12 C 355.122 1064.97 356.855 1060.43 358.644 1056.08 C 357.677 1052.31 355.095 1045.41 357.269 1042.42 C 360.074 1042.69 360.804 1042.73 363.748 1042.59 C 366.7 1040.5 384.356 992.85 388.19 984.409 C 392.036 983.193 397.148 982.165 401.165 981.236 z"/>
<path transform="translate(0,0)" fill="rgb(250,249,249)" d="M 392.941 1019.49 C 397.4 1023.92 399.877 1036.42 399.857 1042.67 C 398.085 1045.17 398.414 1044.38 394.302 1045.18 C 390.049 1044.97 389.31 1045.68 386.473 1043.64 C 384.138 1036.76 389.942 1026.73 392.941 1019.49 z"/>
<path transform="translate(0,0)" fill="rgb(63,147,157)" d="M 978.998 981.255 C 981.549 980.751 981.369 980.718 983.874 981.376 C 988.69 988.274 1007.3 1058.86 1010.86 1072.11 C 1001.57 1073.26 997.519 1074.41 989.13 1078.32 C 987.779 1073.03 985.874 1067.13 984.293 1061.85 C 977.29 1061.84 967.703 1060.57 960.537 1059.82 C 951.513 1063.45 951.206 1068.26 947.913 1076.99 C 941.493 1073.6 937.473 1071.25 930.559 1069.17 C 933.222 1064.03 934.319 1061.01 936.289 1055.6 C 935.32 1051.96 932.653 1045.13 935.129 1042.23 L 940.301 1042.74 C 941.062 1042.37 941.823 1041.99 942.583 1041.61 C 950.101 1025.29 958.726 1000.25 965.848 984.482 C 970.131 983.142 974.61 982.24 978.998 981.255 z"/>
<path transform="translate(0,0)" fill="rgb(250,249,249)" d="M 970.482 1019.61 C 975.287 1023.91 977.433 1036.36 977.422 1042.68 C 975.703 1045.09 976.18 1044.33 972.377 1045.19 C 971.162 1045.2 968.33 1045.21 967.271 1045.06 C 958.217 1043.74 968.541 1024.34 970.482 1019.61 z"/>
<path transform="translate(0,0)" fill="rgb(63,147,157)" d="M 1303.85 980.168 C 1333.1 976.515 1336.03 985.897 1335.38 1011.03 C 1325.24 1003 1313.02 992.501 1300.94 1003.51 C 1296.4 1016.91 1330.62 1024.98 1334.37 1039.97 C 1339.75 1061.56 1322.16 1070.58 1304.77 1076.5 C 1290.26 1079.06 1282.5 1078.68 1268.69 1074.18 C 1268.91 1066.04 1269.57 1057.5 1270.07 1049.34 C 1278.74 1055.82 1296.37 1065.43 1304.12 1052.75 C 1304.44 1040.91 1277.54 1035.96 1274.12 1020.5 C 1269.11 997.905 1284.5 986.076 1303.85 980.168 z"/>
<path transform="translate(0,0)" fill="rgb(63,147,157)" d="M 1055.96 978.553 L 1056.16 978.748 C 1057.19 981.414 1055.17 994.384 1054.62 998.271 C 1051.92 1017.62 1050.9 1035.22 1050.51 1054.7 C 1062.73 1055.49 1073.39 1054.45 1085.54 1053.5 C 1083.22 1060.08 1080.37 1067.07 1077.83 1073.61 C 1067.45 1075.38 1059.8 1075.85 1049.32 1076.57 C 1037.51 1077.37 1025.65 1077.26 1013.86 1076.24 C 1014.92 1070.9 1016.47 1062.4 1018.43 1056.91 C 1020.09 1055.69 1021.49 1054.65 1022.63 1053.81 C 1023.66 1048.15 1023.83 1034.41 1024.17 1027.67 C 1024.97 1012.03 1025.84 998.16 1027.83 982.62 C 1035.9 980.9 1047.55 979.682 1055.96 978.553 z"/>
<path transform="translate(0,0)" fill="rgb(63,147,157)" d="M 1484.75 980.374 C 1493.95 979.215 1508.59 981.775 1518.3 981.896 C 1525.3 981.983 1530.97 981.041 1537.93 980.025 C 1535.4 986.552 1533.41 993.071 1531.3 999.733 C 1523.1 1001.67 1518.68 1002.33 1510.26 1003.23 C 1508.93 1016.48 1507.74 1029.75 1506.68 1043.03 C 1506.18 1049.64 1505.49 1063.59 1504.14 1069.27 L 1501.76 1070.2 C 1492.59 1071.52 1488.25 1073.74 1480.13 1077.8 C 1479.96 1052.52 1481.93 1025.91 1483.5 1000.63 C 1474.17 1000.84 1465.89 1002.58 1456.84 1004.63 C 1458.74 997.79 1461.2 990.772 1463.46 984.012 C 1471.21 982.301 1476.86 981.387 1484.75 980.374 z"/>
<path transform="translate(0,0)" fill="rgb(63,147,157)" d="M 1368.69 980.379 C 1377.69 979.336 1391.79 981.659 1401.39 981.835 C 1409.26 981.979 1414.12 981.132 1421.99 979.911 C 1419.5 985.99 1417.28 993.351 1415.2 999.686 C 1407.05 1001.75 1402.54 1002.39 1394.2 1003.26 C 1393.11 1014.82 1390.63 1061.06 1387.98 1069.4 L 1385.76 1070.17 C 1376.94 1071.42 1371.99 1073.89 1364.08 1077.76 C 1364.17 1051.6 1365.85 1026.69 1367.42 1000.65 C 1357.93 1000.85 1349.91 1002.58 1340.73 1004.71 L 1347.33 984.002 C 1355.19 982.256 1360.69 981.371 1368.69 980.379 z"/>
<path transform="translate(0,0)" fill="rgb(63,147,157)" d="M 1646.85 980.392 C 1656.88 979.393 1669.29 981.727 1679.59 981.874 C 1686.6 981.974 1692.87 981.02 1699.78 980.052 C 1697.28 986.34 1695.16 993.307 1693.06 999.785 C 1685.13 1001.65 1679.91 1002.45 1671.88 1003.19 C 1671.06 1012.56 1667.66 1064.81 1665.54 1069.54 L 1663.12 1070.21 C 1654.86 1071.47 1649.38 1074.11 1641.97 1077.71 C 1641.86 1051.72 1643.88 1026.58 1645.26 1000.68 C 1635.53 1000.85 1627.87 1002.57 1618.44 1004.72 L 1625.11 984.037 C 1633.18 982.227 1638.62 981.4 1646.85 980.392 z"/>
<path transform="translate(0,0)" fill="rgb(63,147,157)" d="M 883.515 980.369 C 901.163 978.384 910.05 984.396 936.612 979.713 C 934.101 985.848 931.866 993.372 929.793 999.778 C 921.839 1001.74 916.628 1002.45 908.519 1003.23 C 907.778 1013.21 904.321 1062.1 902.537 1069.31 L 900.765 1070.13 C 891.843 1071.37 886.855 1073.78 878.794 1077.57 C 878.754 1051 880.516 1027.11 882.043 1000.67 C 872.683 1000.84 864.273 1002.6 855.229 1004.77 L 861.764 984.119 C 869.782 982.279 875.322 981.424 883.515 980.369 z"/>
<path transform="translate(0,0)" fill="rgb(63,147,157)" d="M 1167.14 980.027 L 1169.06 980.072 C 1170.49 983.247 1165.28 1059.75 1165.09 1069.57 L 1140.86 1076.91 L 1138.69 1076.8 C 1137.08 1073.47 1144.73 1021.61 1143.33 1011.97 C 1142.84 1008.66 1144.8 990.082 1145.32 985.237 C 1154.21 984.327 1158.91 983.131 1167.14 980.027 z"/>
<path transform="translate(0,0)" fill="rgb(63,147,157)" d="M 1449.45 980.032 L 1451.4 979.88 C 1452.93 984.141 1447.62 1057.45 1447.52 1069.54 L 1422.95 1076.91 L 1420.93 1076.87 C 1421.13 1077.31 1426.77 992.777 1427.67 985.27 C 1436.28 984.4 1441.49 983.119 1449.45 980.032 z"/>
<path transform="translate(0,0)" fill="rgb(63,147,157)" d="M 705.978 980.026 C 707.971 979.928 707.068 979.644 708.666 980.943 C 708.096 1010.19 704.175 1040.25 704.018 1069.65 C 695.821 1072.03 687.642 1074.47 679.482 1076.97 L 677.337 1076.71 C 677.586 1077.62 683.605 991.423 684.374 985.2 C 693.676 984.112 697.353 983.389 705.978 980.026 z"/>
<path transform="translate(0,0)" fill="rgb(63,147,157)" d="M 847.923 980.047 L 849.629 980.067 C 851.334 983.154 846.08 1059.99 846.039 1069.6 C 837.788 1072.11 829.516 1074.56 821.227 1076.94 L 819.414 1076.55 C 818.277 1073.63 820.536 1059.11 821.075 1055 C 824.141 1031.66 823.711 1008.61 826.272 985.234 C 835.219 984.287 839.658 983.257 847.923 980.047 z"/>
<path transform="translate(0,0)" fill="url(#Gradient4)" d="M 881.091 395.244 L 998.463 395.084 C 1025.51 395.071 1054.73 394.442 1081.51 396.906 C 1139.73 402.262 1198.1 423.254 1239.99 465.307 C 1287.79 513.299 1306.51 573.74 1306.32 639.988 C 1306.14 705.013 1287.24 764.533 1240.14 811.621 C 1196.41 855.346 1133.8 876.333 1073.11 880.316 C 1051.66 881.724 1023.35 880.958 1001.39 880.959 L 881.084 880.935 L 880.989 806.922 C 874.158 806.862 861.627 807.126 855.255 806.421 L 855.258 881.001 L 761.759 880.991 L 761.556 476.023 L 880.917 476.032 C 881.143 449.103 881.201 422.173 881.091 395.244 z"/>
<path transform="translate(0,0)" fill="url(#Gradient3)" d="M 880.917 476.032 C 920.662 476.498 966.534 474.303 1005.22 479.666 C 1016.44 481.515 1050.53 489.133 1058.69 495.391 L 1059.3 496.013 C 1064.59 501.332 1070.99 503.194 1070.97 510.738 L 1071.08 696.202 C 1071.12 706.61 1068.42 765.1 1073.12 770.103 L 1076.25 771.068 L 1076.37 772.696 L 1072.88 776.144 C 1074.64 777.76 1073.61 777.214 1075.96 777.766 C 1062.74 786.005 1046.79 792.062 1031.85 796.44 C 1021.3 798.893 1000.98 798.186 989.462 798.13 C 988.577 781.166 987.91 728.201 990.653 714.286 L 979.938 716.871 L 979.048 716.091 C 975.914 706.279 978.598 626.11 977.955 609.339 C 978.721 598.207 976.906 574.646 978.815 565.28 C 956.496 562.61 930.295 563.464 907.577 563.458 C 891.97 563.455 871.228 562.541 856.075 563.544 C 864.376 563.791 872.68 563.921 880.984 563.935 L 881.12 610.379 C 881.112 644.754 882.135 685.387 880.89 719.075 L 880.907 806.059 C 875.099 806.066 860.344 805.726 855.255 806.421 L 855.258 881.001 L 761.759 880.991 L 761.556 476.023 L 880.917 476.032 z"/>
<path transform="translate(0,0)" fill="rgb(0,124,194)" d="M 978.815 565.28 C 1000.58 570.814 1018.52 576.982 1030.51 597.452 C 1042.21 617.428 1043.8 644.615 1038.12 666.64 C 1031.61 691.873 1014.82 706.68 990.653 714.286 L 979.938 716.871 L 979.048 716.091 C 975.914 706.279 978.598 626.11 977.955 609.339 C 978.721 598.207 976.906 574.646 978.815 565.28 z"/>
<path transform="translate(0,0)" fill="rgb(0,124,194)" d="M 856.075 563.544 C 864.376 563.791 872.68 563.921 880.984 563.935 L 881.12 610.379 C 881.112 644.754 882.135 685.387 880.89 719.075 L 856.131 719.017 L 856.075 563.544 z"/>
<path transform="translate(0,0)" fill="rgb(0,124,194)" d="M 1005.22 479.666 L 1006.01 478.373 C 1015.83 476.774 1025.51 478.017 1035.01 477.582 C 1120.76 473.655 1191.63 513.226 1204.28 603.658 C 1210.89 650.875 1206.45 702.272 1177.26 742.699 C 1155.44 772.248 1120.89 789.891 1085.02 795.084 C 1074.26 796.643 1039.55 800.661 1031.85 796.44 C 1046.79 792.062 1062.74 786.005 1075.96 777.766 C 1073.61 777.214 1074.64 777.76 1072.88 776.144 L 1076.37 772.696 L 1076.25 771.068 L 1073.12 770.103 C 1068.42 765.1 1071.12 706.61 1071.08 696.202 L 1070.97 510.738 C 1070.99 503.194 1064.59 501.332 1059.3 496.013 L 1058.69 495.391 C 1050.53 489.133 1016.44 481.515 1005.22 479.666 z"/>
<path transform="translate(0,0)" fill="rgb(245,219,38)" d="M 1058.69 495.391 C 1160.93 535.144 1182.08 679.965 1106.56 754.467 C 1098.1 762.812 1086.5 772.284 1075.96 777.766 C 1073.61 777.214 1074.64 777.76 1072.88 776.144 L 1076.37 772.696 L 1076.25 771.068 L 1073.12 770.103 C 1068.42 765.1 1071.12 706.61 1071.08 696.202 L 1070.97 510.738 C 1070.99 503.194 1064.59 501.332 1059.3 496.013 L 1058.69 495.391 z"/>
<path transform="translate(0,0)" fill="url(#Gradient2)" d="M 856.075 563.544 C 871.228 562.541 891.97 563.455 907.577 563.458 C 930.295 563.464 956.496 562.61 978.815 565.28 C 976.906 574.646 978.721 598.207 977.955 609.339 C 976.696 604.501 977.503 590.667 976.162 588.74 C 953.596 591.465 904.451 596.896 883.593 593.827 C 883.599 601.848 883.633 602.818 881.12 610.379 L 880.984 563.935 C 872.68 563.921 864.376 563.791 856.075 563.544 z"/>
<path transform="translate(0,0)" fill="rgb(230,119,46)" d="M 990.653 714.286 C 987.91 728.201 988.577 781.166 989.462 798.13 L 978.811 798.112 C 978.404 787.337 976.401 720.957 979.938 716.871 L 990.653 714.286 z"/>
<path transform="translate(0,0)" fill="rgb(67,147,107)" d="M 643.041 1172.14 C 660.582 1170.28 678.118 1179.17 682.952 1196.03 C 687.358 1211.4 686.509 1240.97 683.811 1256.29 C 688.161 1252.99 693.691 1247.68 698.641 1245.49 C 707.904 1241.66 715.888 1256.25 725.443 1253.19 C 732.725 1250.85 737.608 1244.56 735.184 1237.04 C 733.918 1233.12 728.691 1230.95 725.419 1229.07 C 717.781 1228.73 706.33 1231.84 701.153 1225.43 C 701.098 1219.59 711.584 1207.67 715.567 1202.49 C 686.336 1201.73 684.706 1205.9 687.083 1175.28 C 700.97 1172.51 748.328 1174.39 763.986 1174.49 C 780.727 1174.6 829.834 1172.24 843.828 1175.41 C 844.918 1178.44 842.824 1186.39 841.609 1189.57 C 832.905 1212.31 822.924 1234.59 813.795 1257.17 C 811.067 1263.91 808.317 1271.39 804.696 1277.68 C 801.339 1279.64 801.77 1278.96 797.25 1279 C 791.575 1279.09 783.968 1279.85 779.232 1277.08 C 773.491 1266.26 805.468 1214.73 803.591 1203.02 C 801.48 1200.08 802.807 1200.75 799.886 1200.24 C 793.073 1202.92 793.199 1210.86 792.501 1216.99 C 791.726 1217.09 790.95 1217.17 790.173 1217.24 C 757.233 1220.41 764.818 1210.06 764.851 1182.67 C 758.353 1191.64 752.745 1198.95 745.699 1207.49 C 758.113 1215.97 765.945 1224.48 765.784 1240.55 C 765.72 1251.18 761.324 1261.32 753.611 1268.63 C 731.868 1289.53 700.381 1283.21 681.123 1262.4 C 663.049 1290.94 620.862 1286.95 612.452 1252.89 C 610.008 1242.99 611.188 1232.99 610.963 1222.97 C 610.375 1196.83 614.171 1178.43 643.041 1172.14 z"/>
<path transform="translate(0,0)" fill="rgb(250,249,249)" d="M 646.776 1178.3 C 686.8 1180.07 678.813 1216.59 678.917 1244.89 C 678.986 1263.74 665.99 1272.24 649.311 1274.96 C 622.105 1272.98 617.009 1256.72 617.255 1233.05 C 617.521 1207.42 613.769 1182.74 646.776 1178.3 z"/>
<path transform="translate(0,0)" fill="rgb(67,147,107)" d="M 642.861 1195.1 C 664.07 1193.19 662.896 1208.7 662.663 1225.77 C 662.506 1237.28 664.587 1251.14 653.744 1257.86 C 633.748 1261.33 633.398 1242.55 634.029 1227.95 C 634.574 1215.36 631.606 1203.03 642.861 1195.1 z"/>
<path transform="translate(0,0)" fill="rgb(0,124,194)" d="M 644.085 1200.94 C 648.328 1201.02 649.611 1200.7 653.201 1202.63 C 657.463 1206.93 657.225 1246.54 652.626 1251.99 C 648.156 1251.89 646.977 1252.2 643.174 1250.2 C 639.312 1245.02 639.776 1207.27 644.085 1200.94 z"/>
<path transform="translate(0,0)" fill="rgb(250,249,249)" d="M 692.809 1180.11 L 759.451 1180.16 L 734.369 1211.74 C 752.567 1215.93 763.23 1228.75 758.43 1247.87 C 755.958 1257.34 749.675 1265.36 741.075 1270.02 C 728.792 1276.76 716.239 1275.61 703.514 1271.67 C 697.135 1268.8 693.562 1265.8 688.416 1261.31 L 701.538 1250.44 C 707.916 1255.54 713.154 1258.8 721.744 1259.19 C 738.479 1259.96 749.352 1239.55 735.787 1227.87 C 727.952 1221.13 717.416 1222.3 707.706 1223.33 C 714.707 1214.24 721.613 1205.07 728.424 1195.83 L 692.92 1195.86 L 692.809 1180.11 z"/>
<path transform="translate(0,0)" fill="rgb(250,249,249)" d="M 771.095 1180.19 L 838.729 1180.16 C 828.784 1205.64 817.367 1230.78 807.323 1256.25 C 805.223 1261.58 803.014 1266.89 800.213 1271.88 C 797.135 1273.48 793.33 1272.96 789.75 1272.89 C 786.266 1272.84 786.779 1273.39 784.375 1271.75 C 785.739 1266.64 792.198 1252.03 794.641 1246.15 L 815.431 1195.79 L 787.224 1195.78 L 787.269 1211.23 L 771.125 1211.27 L 771.095 1180.19 z"/>
<path transform="translate(0,0)" fill="rgb(67,147,107)" d="M 1122.18 1170.78 C 1126.8 1170.57 1139.74 1173.38 1143.58 1175.68 C 1153.56 1181.66 1139.89 1198 1135.83 1203.99 C 1156.02 1210.41 1160.78 1216.36 1167.78 1235.76 C 1168.4 1222.27 1166.13 1208.26 1170.53 1195.53 C 1177.5 1175.35 1202.03 1166.46 1221.03 1174.59 C 1228.7 1177.89 1234.75 1184.09 1237.85 1191.84 C 1239.07 1194.83 1238.25 1193.97 1240.41 1195.91 C 1248.89 1189.52 1272.56 1166.95 1282.65 1174.87 C 1283.78 1177.69 1284.34 1180.64 1284.35 1183.75 C 1284.43 1212.59 1284.06 1241.62 1284.21 1270.43 C 1284.25 1278.77 1275.58 1280.4 1269.16 1279.51 C 1264.9 1278.92 1260.52 1278.93 1255.72 1277.95 C 1253.09 1269.86 1254.18 1230.64 1254.21 1219.36 C 1249.02 1219.96 1247.63 1219.71 1242.39 1219.01 C 1242.69 1241.31 1245.44 1269.29 1219.25 1279.14 C 1209.27 1282.84 1198.21 1282.28 1188.65 1277.6 C 1175.07 1270.78 1171.67 1261.5 1167.32 1248.37 C 1165.8 1253.62 1163.64 1259.9 1160.5 1264.36 C 1154.28 1273.21 1144.73 1279.14 1134.05 1280.8 C 1111.86 1284.36 1090.09 1271.75 1087.28 1248.21 C 1084.83 1227.67 1097.47 1210.92 1107.36 1194.2 C 1111.94 1186.46 1116.87 1177.91 1122.18 1170.78 z"/>
<path transform="translate(0,0)" fill="rgb(250,249,249)" d="M 1203.71 1178.3 C 1242.73 1179.94 1235.91 1214.53 1236.04 1242.3 C 1236.12 1261.97 1225.32 1272.06 1206.8 1274.84 C 1167.41 1272.7 1174.28 1237.85 1174.44 1209.39 C 1174.55 1190.55 1186.13 1180.76 1203.71 1178.3 z"/>
<path transform="translate(0,0)" fill="rgb(67,147,107)" d="M 1199.79 1195.08 C 1205.69 1194.58 1212.61 1193.97 1215.94 1200.44 C 1222.29 1212.8 1219.44 1234 1218.21 1247.65 C 1217.74 1252.8 1214.15 1255.72 1210.32 1258.11 C 1205.14 1258.5 1198.49 1258.99 1195.28 1253.51 C 1188.11 1241.29 1191.25 1219.98 1192.22 1206.22 C 1192.62 1200.69 1195.78 1197.77 1199.79 1195.08 z"/>
<path transform="translate(0,0)" fill="rgb(0,124,194)" d="M 1201.37 1200.98 C 1205.4 1201.11 1207.57 1200.71 1210.8 1202.8 C 1214.78 1208.33 1214.12 1245.69 1209.5 1251.99 C 1205.44 1251.95 1203.32 1252.41 1200.1 1250.29 C 1196.19 1245.36 1196.48 1206.85 1201.37 1200.98 z"/>
<path transform="translate(0,0)" fill="rgb(250,249,249)" d="M 1125.45 1176.78 L 1141.96 1182.92 C 1136.29 1192.18 1129.38 1201.19 1124.23 1210.73 C 1128.13 1210.69 1133.32 1210.61 1137.06 1211.43 C 1144.84 1213.2 1151.64 1217.92 1156.02 1224.59 C 1167.28 1241.89 1159.68 1260.85 1143.36 1271.37 C 1123.86 1279.25 1099.22 1272.44 1094.01 1251.04 C 1088.69 1229.23 1114.25 1195.35 1125.45 1176.78 z"/>
<path transform="translate(0,0)" fill="rgb(67,147,107)" d="M 1124.48 1224.56 C 1134.03 1223.23 1142.92 1229.72 1144.54 1239.23 C 1146.16 1248.74 1139.94 1257.81 1130.48 1259.72 C 1124.11 1261.01 1117.54 1258.72 1113.34 1253.76 C 1109.14 1248.8 1107.97 1241.95 1110.28 1235.87 C 1112.6 1229.8 1118.04 1225.47 1124.48 1224.56 z"/>
<path transform="translate(0,0)" fill="rgb(0,124,194)" d="M 1123.17 1231.54 C 1127.02 1230.16 1131.31 1230.96 1134.41 1233.63 C 1137.5 1236.31 1138.92 1240.45 1138.11 1244.46 C 1137.3 1248.47 1134.39 1251.73 1130.5 1253 C 1124.61 1254.92 1118.27 1251.75 1116.26 1245.88 C 1114.26 1240.02 1117.33 1233.63 1123.17 1231.54 z"/>
<path transform="translate(0,0)" fill="rgb(250,249,249)" d="M 1276.53 1178.91 C 1278.87 1182.43 1277.77 1261.92 1277.75 1272.88 L 1260.67 1272.9 L 1260.66 1255.5 L 1260.55 1205.62 L 1248.43 1214.11 L 1248.4 1196.11 L 1276.53 1178.91 z"/>
<path transform="translate(0,0)" fill="rgb(8,9,9)" d="M 739.313 1297.56 C 770.941 1291.16 801.812 1311.47 808.444 1343.05 C 815.076 1374.63 794.984 1405.65 763.451 1412.51 C 731.597 1419.43 700.197 1399.09 693.497 1367.19 C 686.798 1335.29 707.364 1304.03 739.313 1297.56 z"/>
<path transform="translate(0,0)" fill="rgb(0,124,194)" d="M 749.5 1307.02 C 775.85 1306.19 797.955 1326.73 799.055 1353.07 C 800.155 1379.41 779.84 1401.73 753.512 1403.1 C 736.239 1403.99 719.814 1395.55 710.499 1380.97 C 701.183 1366.4 700.413 1347.95 708.481 1332.65 C 716.549 1317.35 732.212 1307.56 749.5 1307.02 z"/>
<path transform="translate(0,0)" fill="rgb(8,9,9)" d="M 729.799 1327.68 C 737.89 1328.06 740.529 1336.62 743.415 1343.04 L 735.059 1351.98 C 740.705 1360.1 747.777 1367.13 755.932 1372.72 C 758.73 1369.67 761.688 1366.62 764.542 1363.61 C 770.231 1365.9 775.945 1367.31 779.328 1372.14 C 780.257 1375.89 779.468 1376.91 778.077 1380.77 C 773.567 1385.27 770.925 1386.08 765.205 1388.25 C 764.312 1388.06 763.421 1387.86 762.532 1387.65 C 746.266 1383.81 733.408 1374.52 724.823 1360.21 C 716.899 1347.01 715.146 1335.98 729.799 1327.68 z"/>
<path transform="translate(0,0)" fill="rgb(67,147,107)" d="M 994.073 1172.2 C 1014.16 1170.5 1028.06 1175.54 1038.83 1193.52 C 1045.35 1188.24 1070.15 1171.44 1077.86 1172.38 C 1082.99 1178.85 1082.57 1273.39 1078.84 1277.33 C 1072.09 1280.4 1059.99 1278.95 1052.21 1278.55 C 1051.55 1270.02 1052.8 1222.41 1050.36 1219.89 C 1045.52 1220.58 1044.34 1220.83 1040.02 1218.46 C 1036.66 1220.47 1034.38 1227.91 1031.53 1230.78 C 1025.53 1236.79 1014.85 1243.14 1009.53 1249.34 L 1010.27 1250.96 C 1018.56 1251.24 1028.32 1249.31 1036 1251.87 C 1043.28 1254.3 1041.89 1272.13 1038.89 1277.33 C 1034.12 1280.41 965.445 1280.32 960.562 1276.43 C 959.256 1270.25 959.886 1259.89 960.03 1253.27 C 970.212 1241.22 1006.28 1221.77 1011 1206 C 1010.86 1204.58 1010.97 1202.82 1009.7 1201.96 C 997.081 1193.38 987.919 1205.03 981.592 1211.83 C 974.941 1209.54 961.345 1205.81 958.234 1199.76 C 956.244 1186.33 983.389 1174.74 994.073 1172.2 z"/>
<path transform="translate(0,0)" fill="rgb(250,249,249)" d="M 997.912 1178.32 C 1041.5 1178.28 1046.1 1217.71 1012.98 1237.91 C 1005.85 1242.25 994.803 1251.7 987.687 1257.06 L 1034.33 1257.27 L 1034.4 1272.89 L 985.5 1272.92 L 966.087 1272.88 L 965.978 1255.92 C 979.426 1244.44 993.988 1234.48 1007.97 1222.44 C 1024.37 1208.33 1020.02 1192.63 997.102 1193.51 C 989.594 1193.8 984.666 1198.74 980.136 1204.53 L 963.92 1198.15 C 975.002 1185.56 981.208 1180.9 997.912 1178.32 z"/>
<path transform="translate(0,0)" fill="rgb(250,249,249)" d="M 1073.71 1178.91 C 1075.99 1182.28 1075.01 1262.02 1075.01 1272.88 L 1057.94 1272.9 L 1057.93 1258.25 L 1057.92 1205.45 L 1045.8 1214.06 L 1045.78 1196.04 L 1073.71 1178.91 z"/>
<path transform="translate(0,0)" fill="rgb(250,249,249)" d="M 1294.82 1305.18 C 1296.39 1305.05 1297.97 1304.95 1299.56 1304.89 C 1314.97 1304.28 1327.03 1307.28 1338.63 1318.13 C 1348.46 1327.29 1354.18 1340.02 1354.48 1353.45 C 1355.44 1385.47 1331.51 1405.37 1300.75 1405.83 C 1291.39 1404.94 1287.34 1403.25 1278.68 1400 L 1252.26 1406.96 C 1254.52 1398.48 1256.94 1390.04 1259.51 1381.65 C 1244.12 1347.37 1257.06 1314.06 1294.82 1305.18 z"/>
<path transform="translate(0,0)" fill="url(#Gradient1)" d="M 1298.17 1313.14 C 1309.2 1312.28 1319.03 1314.18 1328.23 1320.61 C 1337.74 1327.34 1344.03 1337.7 1345.61 1349.24 C 1347.23 1360.69 1344.08 1372.3 1336.89 1381.36 C 1327.71 1392.92 1317.44 1396.03 1303.7 1397.65 C 1293.47 1396.59 1289.54 1395.01 1280.1 1390.79 L 1264.76 1394.72 L 1268.58 1379.68 C 1266.14 1375.29 1263.98 1370.59 1262.78 1365.69 C 1259.89 1354.39 1261.76 1342.39 1267.96 1332.51 C 1275.37 1320.9 1285.17 1316.01 1298.17 1313.14 z"/>
<path transform="translate(0,0)" fill="rgb(250,249,249)" d="M 1283.12 1331.93 C 1286.13 1331.86 1286.26 1331.72 1289.23 1332.7 C 1292.71 1335.74 1293.9 1340.52 1295.62 1345.02 L 1290.34 1351.92 C 1297.39 1361.26 1299.83 1363.21 1310.15 1368.53 L 1316.97 1361.02 C 1323.35 1364.11 1329.06 1364.56 1329.7 1371.91 C 1314.39 1392.8 1279.82 1363.25 1278.17 1344.62 C 1277.65 1338.82 1279.76 1336.17 1283.12 1331.93 z"/>
<path transform="translate(0,0)" fill="rgb(67,147,107)" d="M 914.999 1239.32 C 915.227 1248.59 914.002 1256.8 908.925 1264.83 C 903.746 1273.01 895.409 1278.68 885.898 1280.48 C 864.972 1284.58 843.038 1271.54 841.328 1248.63 C 841.23 1235.07 838.877 1215.01 841.833 1202.02 C 851.813 1158.19 911.458 1162.14 915.14 1209.22 L 916.671 1212.87 L 918.639 1213.32 C 917.957 1221.11 917.173 1230.21 918.672 1237.94 L 914.999 1239.32 z"/>
<path transform="translate(0,0)" fill="rgb(63,147,157)" d="M 915.14 1209.22 L 916.671 1212.87 L 918.639 1213.32 C 917.957 1221.11 917.173 1230.21 918.672 1237.94 L 914.999 1239.32 C 914.748 1229.37 915.007 1219.19 915.14 1209.22 z"/>
<path transform="translate(0,0)" fill="rgb(250,249,249)" d="M 875.384 1178.29 C 915.174 1179.4 908.847 1213.93 908.762 1242.33 C 908.704 1261.68 898.113 1272.05 879.73 1274.75 C 852.55 1274.48 846.425 1256.6 846.865 1233.3 C 847.341 1208.09 842.893 1183.49 875.384 1178.29 z"/>
<path transform="translate(0,0)" fill="rgb(67,147,107)" d="M 872.888 1195.02 C 877.916 1194.65 884.558 1194.08 887.835 1199.3 C 895.425 1211.38 892.077 1233.01 891.086 1246.8 C 890.682 1252.42 887.256 1255.25 883.185 1258.02 C 854.7 1260.85 864.767 1223.27 864.976 1205.34 C 865.03 1200.7 869.234 1197.27 872.888 1195.02 z"/>
<path transform="translate(0,0)" fill="rgb(0,124,194)" d="M 872.922 1201.01 C 878.478 1201.03 885.635 1201.29 885.296 1209.22 C 884.915 1218.13 887.529 1245.42 882.422 1251.56 C 878.898 1252.03 878.756 1251.98 875.183 1251.59 C 873.364 1250.38 871.531 1249.62 871.357 1247.15 C 870.73 1238.3 869.284 1207.34 872.922 1201.01 z"/>
<path transform="translate(0,0)" fill="rgb(67,147,107)" d="M 1371.17 1201.84 C 1376.34 1182.29 1391.36 1170.53 1410.96 1171.76 C 1438.22 1173.47 1446.41 1197.37 1445.44 1220.59 C 1444.6 1240.62 1448.71 1265.7 1426.4 1276.38 C 1415.17 1281.59 1407.27 1283.71 1394.98 1279.12 C 1385.66 1275.7 1378.11 1268.67 1374.04 1259.62 C 1372.09 1255.13 1371 1250.32 1370.83 1245.44 C 1369.58 1237.27 1371.61 1227.42 1369.11 1218.83 C 1368.52 1214.79 1368.82 1205.37 1369 1201.19 L 1371.17 1201.84 z"/>
<path transform="translate(0,0)" fill="rgb(52,137,109)" d="M 1369 1201.19 L 1371.17 1201.84 C 1371.29 1212.18 1371.96 1235.77 1370.83 1245.44 C 1369.58 1237.27 1371.61 1227.42 1369.11 1218.83 C 1368.52 1214.79 1368.82 1205.37 1369 1201.19 z"/>
<path transform="translate(0,0)" fill="rgb(250,249,249)" d="M 1404.61 1178.34 C 1436.51 1177.99 1439.57 1200.01 1439.07 1225.4 C 1438.6 1249.52 1440.59 1269.33 1411.01 1274.69 C 1384.77 1275.9 1376.32 1257.53 1376.91 1234.47 C 1377.55 1209.27 1372.37 1184.59 1404.61 1178.34 z"/>
<path transform="translate(0,0)" fill="rgb(67,147,107)" d="M 1402.81 1194.99 C 1408.72 1194.51 1415.72 1194.14 1418.9 1200.67 C 1425.07 1213.32 1422.64 1235.11 1420.74 1248.87 C 1420.08 1253.57 1416.26 1256.14 1412.68 1258.11 C 1392.58 1260.89 1393.11 1241.02 1393.57 1226.61 C 1393.96 1214.58 1391.56 1202.12 1402.81 1194.99 z"/>
<path transform="translate(0,0)" fill="rgb(0,124,194)" d="M 1403.62 1201.03 C 1407.61 1201.02 1409.14 1200.65 1412.54 1202.41 C 1417.62 1208.79 1416.96 1245.23 1412.72 1251.68 C 1406.86 1252.36 1402.3 1251.78 1401.39 1245.04 C 1400.11 1235.63 1399.08 1208.3 1403.62 1201.03 z"/>
<path transform="translate(0,0)" fill="rgb(67,147,107)" d="M 1320.69 1249.21 C 1306.91 1244.65 1295.7 1238.32 1291.25 1223.2 C 1280.49 1186.62 1319.39 1158.37 1351.26 1177.53 C 1359.33 1182.39 1367.02 1191.78 1369 1201.19 C 1368.82 1205.37 1368.52 1214.79 1369.11 1218.83 C 1366.87 1229.84 1342.24 1273.78 1334.15 1280.73 C 1328.47 1282.21 1309.62 1278 1308.53 1271.44 C 1307.77 1266.84 1317.61 1253.91 1320.69 1249.21 z"/>
<path transform="translate(0,0)" fill="rgb(250,249,249)" d="M 1326.9 1178.28 C 1383.78 1179.21 1361.15 1234.07 1340.91 1260.15 C 1337.95 1263.96 1334.01 1271.62 1331.31 1276.08 L 1319.21 1271.89 L 1316.29 1270.51 C 1315.89 1265.45 1329.51 1247.39 1333.23 1241.96 C 1324.16 1242.29 1317.91 1242.55 1309.69 1237.41 C 1294.22 1227.82 1291.34 1204.95 1302.35 1190.93 C 1309.14 1182.28 1316.61 1179.81 1326.9 1178.28 z"/>
<path transform="translate(0,0)" fill="rgb(67,147,107)" d="M 1324.71 1193.54 C 1330.97 1191.72 1337.73 1193.46 1342.33 1198.08 C 1346.93 1202.69 1348.65 1209.45 1346.81 1215.7 C 1344.97 1221.96 1339.86 1226.71 1333.49 1228.09 C 1324.1 1230.14 1314.78 1224.37 1312.41 1215.06 C 1310.05 1205.74 1315.49 1196.23 1324.71 1193.54 z"/>
<path transform="translate(0,0)" fill="rgb(0,124,194)" d="M 1326.33 1199.7 C 1332.29 1197.92 1338.59 1201.22 1340.52 1207.14 C 1342.46 1213.05 1339.33 1219.43 1333.47 1221.52 C 1329.53 1222.93 1325.15 1222.08 1322.02 1219.32 C 1318.89 1216.56 1317.5 1212.32 1318.39 1208.24 C 1319.29 1204.17 1322.33 1200.9 1326.33 1199.7 z"/>
<path transform="translate(0,0)" fill="rgb(250,249,249)" d="M 935.137 1428.42 C 947.539 1428.41 973.695 1428.13 980.194 1440.99 C 987.265 1454.99 977.247 1462.12 966.191 1467.83 C 969.461 1478.1 974.455 1490.71 978.18 1501.13 C 974.222 1500.36 970.297 1499.43 966.416 1498.33 C 962.621 1497.23 959.919 1496.46 958.015 1492.96 C 954.391 1483.75 951.166 1475.62 946.943 1466.64 C 944.249 1473.21 943.399 1480.96 940.225 1488.16 C 935.366 1489.93 927.968 1492.63 922.869 1491.88 C 922.594 1491.4 922.319 1490.93 922.044 1490.45 C 925.74 1479.84 934.43 1455.33 932.163 1444.6 C 928.627 1440.39 931.008 1443.5 925.494 1441.29 C 926.346 1438.1 932.103 1430.49 935.137 1428.42 z"/>
<path transform="translate(0,0)" fill="rgb(0,124,194)" d="M 952.193 1439.72 C 966.012 1441.49 968.992 1450.34 958.497 1459.87 C 955.038 1461.47 950.971 1462.97 947.386 1464.4 C 948.486 1456.78 950.644 1447.4 952.193 1439.72 z"/>
<path transform="translate(0,0)" fill="rgb(250,249,249)" d="M 1537.4 498.451 C 1542.94 504.379 1550.7 515.178 1555.85 521.914 C 1565.55 519.271 1575.28 516.683 1585.01 514.151 L 1567.99 539.154 C 1573.63 547.404 1579.14 555.739 1584.52 564.156 C 1578.45 562.735 1570.85 560.273 1564.75 558.483 C 1561.65 557.324 1560.84 556.865 1557.45 556.65 C 1550.33 559.605 1542.06 572.649 1536.7 579.37 C 1535.97 569.854 1536.08 558.857 1535.96 549.21 L 1507.04 538.462 L 1535.98 528.2 C 1536.27 518.476 1536.93 508.205 1537.4 498.451 z"/>
<path transform="translate(0,0)" fill="rgb(250,249,249)" d="M 1678.44 815.761 C 1680.64 818.663 1682.65 839.367 1683.29 844.501 L 1712.85 852.361 L 1684.9 865.393 C 1685.7 875.33 1686.14 885.615 1686.7 895.594 C 1682.95 891.685 1668.22 875.039 1664.54 873.902 L 1637.48 884.598 L 1652.09 857.825 C 1645.68 850.066 1639.37 842.213 1633.18 834.269 C 1642.89 835.895 1653.12 837.979 1662.85 839.796 L 1678.44 815.761 z"/>
<path transform="translate(0,0)" fill="rgb(250,249,249)" d="M 734.455 1460.5 C 737.99 1463.71 746.726 1480.03 749.796 1485.41 L 779.716 1481.4 L 759.453 1503.99 C 764.007 1513.19 768.275 1521.81 772.375 1531.24 L 747.441 1519.94 C 746.57 1519.58 745.71 1519.6 744.704 1519.5 C 739.542 1523.19 728.045 1534.92 722.675 1539.97 C 724.164 1530.87 725.194 1519.14 726.244 1509.78 C 717.811 1504.9 707.797 1499.79 699.128 1495.11 L 729.259 1488.97 C 730.874 1479.46 732.607 1469.97 734.455 1460.5 z"/>
<path transform="translate(0,0)" fill="rgb(250,249,249)" d="M 1096.51 1528.79 C 1097.84 1532.7 1092.65 1552.37 1091.45 1557.59 L 1116.89 1574.6 L 1086.59 1577.79 C 1083.92 1587.44 1081.13 1597.06 1078.22 1606.64 C 1073.76 1597.56 1070.19 1588.31 1065.42 1579.23 C 1056.35 1580.04 1044.76 1580.06 1035.5 1580.32 L 1057.97 1560.1 C 1054.42 1550.54 1050.96 1540.96 1047.59 1531.35 C 1056.25 1536.47 1065.29 1541.51 1074.04 1546.53 L 1096.51 1528.79 z"/>
<path transform="translate(0,0)" fill="rgb(250,249,249)" d="M 1303.56 1465.95 C 1305.57 1470.47 1307.64 1489.19 1308.41 1495.04 C 1318.33 1497.28 1328.2 1499.71 1338.01 1502.34 C 1328.97 1506.68 1319.85 1511.31 1310.85 1515.79 C 1311.64 1525.81 1312.38 1535.83 1313.07 1545.86 C 1308.58 1541.22 1294.93 1525.81 1290.14 1524.95 L 1263.53 1535.89 L 1277.8 1508.86 C 1271.14 1501.19 1264.59 1493.42 1258.16 1485.54 C 1268 1487.44 1278.39 1489.05 1288.31 1490.72 C 1293.24 1482.37 1298.32 1474.11 1303.56 1465.95 z"/>
<path transform="translate(0,0)" fill="rgb(250,249,249)" d="M 873.802 244.483 C 877.616 247.825 887.304 264.292 890.45 269.385 C 899.783 267.315 910.736 265.519 920.241 263.736 C 913.917 271.567 907.214 279.453 900.769 287.217 C 905.685 296.196 910.522 305.219 915.277 314.285 L 890.241 303.989 C 889.763 303.814 887.694 303.569 887.101 303.484 C 882.238 306.752 870.732 319.591 865.916 324.734 C 866.406 314.685 867.139 304.65 868.114 294.636 C 859.521 290.129 849.095 285.406 840.251 281.128 C 850.086 278.774 860.188 276.016 870.006 273.46 C 871.432 264.073 872.569 253.95 873.802 244.483 z"/>
<path transform="translate(0,0)" fill="rgb(250,249,249)" d="M 1395.34 1408.7 C 1397.75 1411 1403.94 1431.67 1405.42 1436.2 C 1414.8 1436.71 1426.14 1437 1435.26 1438.49 L 1411.36 1456.29 L 1418.97 1485.64 L 1394.03 1468.07 L 1368.53 1484.24 C 1371.44 1474.63 1374.49 1465.06 1377.67 1455.54 C 1369.95 1448.97 1361.93 1442.44 1354.11 1435.95 L 1384.54 1435.63 C 1388.04 1426.61 1391.64 1417.64 1395.34 1408.7 z"/>
<path transform="translate(0,0)" fill="rgb(250,249,249)" d="M 1542.02 1249.77 C 1545.95 1253.09 1557.33 1268.01 1561.06 1272.73 C 1570.47 1269.67 1580.58 1266.82 1590.12 1263.99 L 1573.44 1289.18 C 1578.95 1297.5 1585.1 1306.12 1590.79 1314.38 C 1583.91 1312.67 1576.45 1310.41 1569.58 1308.48 C 1566.46 1307.6 1566.11 1307.59 1563.03 1307.34 C 1556.68 1310.01 1547.72 1324.21 1543 1330.27 C 1542.15 1320.75 1541.97 1309.84 1541.6 1300.2 C 1532.12 1296.99 1522.7 1293.61 1513.36 1290.05 C 1522.3 1286.36 1532.1 1282.77 1541.17 1279.25 C 1541.62 1269.64 1541.75 1259.42 1542.02 1249.77 z"/>
<path transform="translate(0,0)" fill="rgb(250,249,249)" d="M 1592.26 1153.65 C 1597.15 1156.67 1609.9 1168.6 1614.7 1172.94 C 1623.67 1168.39 1632.7 1163.96 1641.78 1159.63 C 1638.32 1168.63 1633.94 1178.17 1630.06 1187.06 C 1636.96 1194.31 1644.49 1201.71 1651.56 1208.86 L 1624.77 1206.47 C 1624.24 1206.38 1622.38 1206.51 1621.75 1206.53 C 1618.63 1209.91 1610.29 1227.15 1607.52 1232.59 C 1604.88 1224.37 1602.52 1212.07 1600.59 1203.38 C 1590.61 1201.9 1580.65 1200.27 1570.72 1198.48 L 1596.68 1182.88 C 1595.1 1173.16 1593.62 1163.41 1592.26 1153.65 z"/>
<path transform="translate(0,0)" fill="rgb(250,249,249)" d="M 372.361 801.845 C 375.072 804.699 385.637 823.086 388.191 827.403 C 397.046 825.448 408.871 823.965 418.024 822.559 L 398.204 845.444 L 412.127 872.768 L 387.312 861.975 L 385.023 861.284 C 380.391 862.669 366.893 877.62 362.64 882.077 C 363.113 872.559 364.287 861.678 365.125 852.068 C 356.113 847.437 347.305 842.946 338.473 837.962 L 367.545 831.326 C 369.226 821.518 370.635 811.698 372.361 801.845 z"/>
<path transform="translate(0,0)" fill="rgb(250,249,249)" d="M 564.726 1326.86 C 566.921 1329.51 569.636 1350.68 570.364 1355.48 C 579.94 1357.84 590.632 1359.94 600.338 1362.05 L 573.343 1376.32 L 576.298 1406.7 C 572.275 1402.73 557.899 1387.85 553.779 1385.64 C 544.89 1389.26 535.297 1393.68 526.431 1397.54 L 539.981 1370.29 C 533.652 1362.75 526.555 1354.94 520.031 1347.5 C 529.7 1348.65 540.27 1350.4 549.978 1351.81 L 564.726 1326.86 z"/>
<path transform="translate(0,0)" fill="rgb(250,249,249)" d="M 500.257 1239.76 C 501.627 1243.91 500.925 1263.59 500.854 1269.01 L 528.829 1280.78 L 499.831 1289.84 C 498.905 1300.07 498.192 1310.31 497.691 1320.57 C 492.54 1313.45 486.583 1303.77 480.505 1297.45 C 478.592 1295.46 476.424 1296.41 473.774 1296.85 L 450.291 1302.61 C 455.127 1295.25 462.804 1285.42 468.181 1278.11 C 462.817 1269.51 457.586 1260.82 452.49 1252.05 C 462.031 1255.38 471.61 1258.59 481.224 1261.7 L 500.257 1239.76 z"/>
<path transform="translate(0,0)" fill="rgb(250,249,249)" d="M 834.063 1502.52 C 837.913 1505.41 849.95 1520.44 853.616 1524.87 C 863.137 1521.64 872.733 1518.64 882.396 1515.87 L 866.467 1541.35 L 884.276 1566.05 L 860.228 1559.94 L 856.496 1559.19 C 851.483 1560.58 840.538 1577.96 836.613 1583.44 C 835.896 1573.32 835.395 1562.96 834.796 1552.81 C 825.055 1549.72 815.347 1546.53 805.672 1543.24 C 815.01 1539.72 824.749 1535.67 834.064 1531.97 L 834.063 1502.52 z"/>
<path transform="translate(0,0)" fill="rgb(250,249,249)" d="M 402.628 689.766 C 405.939 693.51 411.836 711.344 413.867 716.989 C 423.949 716.986 434.031 717.162 444.107 717.517 C 436.525 724.05 428.568 730.208 420.713 736.417 L 429.586 765.836 L 404.429 749.401 C 398.716 752.21 384.763 762.552 378.813 766.774 C 381.712 756.894 384.397 746.953 386.867 736.958 C 380.921 732.687 368.636 723.808 363.766 719.009 C 372.768 718.043 383.919 717.747 393.163 717.164 C 395.857 708.495 399.616 698.455 402.628 689.766 z"/>
<path transform="translate(0,0)" fill="rgb(250,249,249)" d="M 1650.37 702.614 C 1653.5 705.773 1658.29 724.478 1659.85 729.892 C 1669 731.229 1681.25 731.749 1690.67 732.413 L 1665.43 750.291 C 1667.86 759.996 1670.15 769.736 1672.31 779.507 C 1666.02 775.495 1654.57 766.452 1648.26 761.74 C 1644.27 763.474 1626.48 774.652 1621.94 777.411 L 1631.83 748.744 L 1608.75 728.611 C 1618.57 728.98 1629.31 728.901 1639.21 729.001 L 1650.37 702.614 z"/>
<path transform="translate(0,0)" fill="rgb(250,249,249)" d="M 1188.59 247.667 C 1190.41 254.444 1191.48 269.535 1192.23 277.078 C 1201.95 279.79 1211.63 282.612 1221.29 285.543 L 1193.66 297.893 C 1193.94 308.105 1194.32 318.313 1194.81 328.517 C 1188.97 321.819 1181.74 313.05 1175.17 307.184 C 1173.61 305.792 1173.5 306.419 1170.78 306.9 L 1145.58 316.128 C 1150.05 308.483 1157.2 297.023 1160.69 289.254 L 1141.7 265.256 C 1151.4 267.685 1162.25 269.854 1172.09 272.021 C 1177.44 263.8 1182.94 255.681 1188.59 247.667 z"/>
<path transform="translate(0,0)" fill="rgb(250,249,249)" d="M 1603.16 595.655 C 1605.68 598.232 1614.98 617.082 1617.14 621.315 C 1626.87 620.796 1637.71 619.493 1647.48 618.534 L 1626.1 640.282 L 1638.23 668.422 C 1629.61 664.003 1620.97 659.638 1612.3 655.326 L 1610.63 655.193 C 1603.42 660.592 1594.71 668.837 1587.85 674.984 C 1589.56 664.857 1591.11 654.705 1592.51 644.531 L 1566.37 629.023 L 1596.46 624.225 C 1598.48 614.653 1600.71 605.127 1603.16 595.655 z"/>
<path transform="translate(0,0)" fill="rgb(250,249,249)" d="M 1303.73 286.765 C 1304.54 292.097 1302.73 310.28 1302.23 316.504 L 1329.72 329.819 L 1299.94 337.187 L 1295.56 367.191 C 1290.9 359.684 1285.63 349.742 1279.93 342.996 C 1278.65 341.483 1278.45 342.065 1275.78 342.134 L 1249.31 346.736 L 1269.16 323.329 L 1255.14 296.473 L 1283.26 307.956 L 1303.73 286.765 z"/>
<path transform="translate(0,0)" fill="rgb(250,249,249)" d="M 1475.76 1335.51 C 1479.8 1340.57 1487.12 1355.09 1490.5 1361.38 L 1520.49 1357.81 C 1513.63 1365.22 1506.72 1372.58 1499.77 1379.9 C 1503.76 1388.96 1508.19 1398.28 1512.34 1407.32 C 1504.9 1404.47 1494.72 1399.2 1487.32 1395.64 L 1484.66 1395.37 C 1479.52 1398.85 1468 1410.05 1462.44 1414.95 L 1466.35 1385.04 C 1457.52 1380.03 1448.73 1374.96 1439.98 1369.83 C 1449.68 1368.29 1460.03 1366.22 1469.75 1364.44 L 1475.76 1335.51 z"/>
<path transform="translate(0,0)" fill="rgb(250,249,249)" d="M 650.302 337.495 C 655.494 340.643 668.703 351.286 674.154 355.488 L 700.158 340.614 C 697.352 349.94 693.589 359.681 690.234 368.879 C 697.902 375.405 705.414 382.113 712.763 388.996 C 703.215 388.87 693.668 388.639 684.125 388.304 C 681.182 390.021 672.727 411.1 670.69 415.788 C 667.371 406.143 664.851 396.934 662.118 387.124 C 652.041 386.121 641.969 385.067 631.903 383.962 C 639.943 378.197 648.501 372.444 656.662 366.792 L 650.302 337.495 z"/>
<path transform="translate(0,0)" fill="rgb(250,249,249)" d="M 451.687 1142.86 C 452.596 1146.82 448.455 1166.14 447.363 1171.77 C 455.921 1177.2 464.427 1182.72 472.879 1188.31 C 462.622 1189.5 452.777 1190.61 442.578 1192.31 L 435.054 1221.29 C 430.517 1212.18 426.057 1203.04 421.675 1193.85 C 411.529 1194.54 401.388 1195.29 391.252 1196.1 C 398.537 1189.02 406.24 1181.93 413.646 1174.94 C 409.885 1165.56 406.269 1156.11 402.8 1146.62 L 429.18 1161.07 L 451.687 1142.86 z"/>
<path transform="translate(0,0)" fill="rgb(250,249,249)" d="M 643.476 1401.63 C 646.685 1404.33 652.578 1423.61 654.289 1428.68 C 664.325 1428.94 674.36 1429.27 684.391 1429.67 C 677.843 1435.45 667.694 1442.97 660.613 1448.51 L 669.135 1477.9 C 660.63 1472.06 652.079 1466.29 643.481 1460.59 C 636.238 1465.92 625.9 1472.41 618.243 1477.49 L 626.914 1448.27 C 618.909 1442.03 610.991 1435.68 603.161 1429.22 C 613.285 1429.04 623.407 1428.73 633.524 1428.31 L 643.476 1401.63 z"/>
<path transform="translate(0,0)" fill="rgb(250,249,249)" d="M 939.599 1526.59 C 944.794 1529.77 957.453 1540.98 962.748 1545.47 L 989.312 1531.47 C 986.411 1540.16 981.708 1550.85 978.188 1559.49 C 985.357 1565.93 993.098 1573.76 1000.1 1580.55 C 990.388 1579.79 980.665 1579.2 970.933 1578.77 C 968.2 1579.88 958.42 1601.75 956.411 1605.9 C 953.847 1596.1 951.495 1586.24 949.359 1576.33 L 918.705 1572.06 L 944.691 1555.82 L 939.599 1526.59 z"/>
<path transform="translate(0,0)" fill="rgb(250,249,249)" d="M 452.275 584.661 C 455.093 588.446 457.636 607.001 458.601 612.713 C 468.255 614.85 478.544 616.752 488.282 618.714 C 480.709 623.416 469.8 629.087 461.793 633.527 C 463.196 643.513 464.421 653.523 465.466 663.553 C 461.971 660.278 445.668 644.249 442.496 643.112 C 433.672 647.366 424.779 651.477 415.822 655.444 L 428.602 628.071 L 407.621 605.497 C 417.873 606.957 428.148 608.254 438.441 609.388 C 442.785 600.999 447.399 592.752 452.275 584.661 z"/>
<path transform="translate(0,0)" fill="rgb(250,249,249)" d="M 758.084 281.468 C 761.931 283.895 774.911 298.809 778.629 302.911 C 787.953 299.289 797.338 295.826 806.779 292.522 C 801.976 301.33 796.858 310.232 791.942 319.001 C 798.319 326.345 804.92 335.023 810.694 342.821 L 789.277 338.089 C 786.642 337.413 785.64 337.39 782.966 337.154 C 776.785 340.046 768.804 354.795 764.403 361.506 C 762.798 352.676 761.777 340.714 760.741 331.559 L 731.727 323.33 C 740.741 319.101 750.055 314.982 759.136 310.85 L 758.084 281.468 z"/>
<path transform="translate(0,0)" fill="rgb(250,249,249)" d="M 519.891 488.99 C 521.614 491.198 521.05 513.915 521.052 518.224 C 529.749 521.294 540.341 525.806 549.076 529.248 C 540.282 532.787 529.87 535.926 520.762 538.9 C 519.858 548.281 519.489 559.807 518.943 569.366 C 513.32 562.332 507.569 552.484 500.952 546.286 C 499.686 545.099 499.217 545.73 496.77 546.135 L 471.43 552.754 C 475.284 546.355 484.156 534.567 488.778 528.06 C 483.223 519.462 477.763 510.805 472.397 502.089 C 481.835 505.293 491.87 508.326 501.407 511.364 L 519.891 488.99 z"/>
<path transform="translate(0,0)" fill="rgb(250,249,249)" d="M 1024.18 227.693 C 1027.69 234.014 1032.34 248.217 1034.92 255.511 L 1065.1 256.658 C 1058.02 262.685 1048.85 269.531 1041.43 275.376 L 1049.81 304.421 C 1043.8 301.101 1031.03 292.014 1024.81 287.853 C 1021.98 288.726 1002.59 302.459 999.013 304.934 L 1007.66 275.645 C 1001.5 270.061 990.538 262.023 983.631 256.675 C 993.178 256.014 1004.37 255.883 1014.06 255.562 L 1024.18 227.693 z"/>
<path transform="translate(0,0)" fill="rgb(250,249,249)" d="M 602.938 407.068 C 604.251 409.813 600.137 431.132 599.305 436.093 L 625.081 452.091 C 615.06 453.645 605.015 455.045 594.951 456.292 L 588.103 485.791 C 583.409 477.603 578.457 467.393 574.169 458.894 C 564.186 459.766 554.195 460.554 544.199 461.256 C 551.179 454.107 558.67 446.889 565.794 439.837 C 561.687 430.515 557.663 421.156 553.72 411.763 L 581.173 425.88 L 602.938 407.068 z"/>
<path transform="translate(0,0)" fill="rgb(250,249,249)" d="M 1455.74 415.44 C 1459.91 417.614 1473.88 430.87 1478.3 434.884 L 1505.09 422.08 C 1502.55 429.649 1496.46 441.872 1492.96 449.464 L 1513.77 471.356 C 1504.92 470.802 1494.53 469.412 1485.6 468.447 L 1484.03 468.593 C 1480.98 472.19 1472.2 489.446 1469.43 494.646 C 1466.98 484.741 1465.21 475.227 1463.29 465.218 C 1453.36 463.153 1443.36 461.655 1433.25 459.49 L 1459.69 444.645 L 1455.74 415.44 z"/>
<path transform="translate(0,0)" fill="rgb(250,249,249)" d="M 1409.8 345.925 C 1410.7 350.14 1404.84 369.132 1403.38 374.35 L 1427.97 392.705 C 1417.81 393.239 1407.67 393.887 1397.53 394.65 C 1394.52 404.226 1391.31 413.739 1387.91 423.184 L 1376.84 395.09 L 1346.2 394.881 C 1354.09 388.582 1362.02 381.92 1369.84 375.497 L 1360.35 346.149 C 1368.19 351.575 1378 357.51 1386.15 362.694 C 1393.69 357.699 1402.34 351.242 1409.8 345.925 z"/>
<path transform="translate(0,0)" fill="rgb(250,249,249)" d="M 1202.56 1506.89 C 1204.33 1509.86 1203.05 1530.68 1202.89 1535.9 L 1230.33 1548.09 C 1221.15 1551.11 1210.69 1553.99 1201.35 1556.77 L 1198.57 1587.26 C 1193.8 1580.23 1189.06 1572.95 1184.19 1566 C 1181.74 1562.51 1181.79 1562.6 1178.68 1562.21 C 1169.54 1564.44 1161.02 1566.17 1151.81 1567.97 C 1157.5 1560.18 1164.16 1551.88 1170.09 1544.18 L 1154.74 1517.68 C 1164.04 1521.28 1173.93 1524.74 1183.33 1528.18 L 1202.56 1506.89 z"/>
<path transform="translate(0,0)" fill="rgb(250,249,249)" d="M 882.749 1417.88 C 890.242 1417.75 917.246 1425.03 928.629 1426.56 C 924.146 1431.82 921.582 1433.75 915.902 1437.15 L 898.402 1433.36 C 896.878 1436.91 895.243 1442.53 894.004 1446.34 L 908.348 1448.38 C 906.71 1451.31 904.627 1455.2 902.583 1457.81 C 897.988 1463.69 895.759 1459.91 889.917 1460.69 C 887.585 1462.84 886.199 1467.25 887.436 1470.23 C 890.803 1473.13 895.366 1473.96 899.776 1475.25 C 903.285 1475.96 909.279 1476.66 912.98 1477.2 L 901.304 1489.35 C 886.914 1486.44 872.953 1483.45 859.651 1477.12 C 865.105 1471.38 874.626 1462.28 869.104 1453.52 C 866.451 1449.31 879.034 1441.42 879.245 1431.59 C 877.374 1428.64 877.902 1429.56 873.857 1428.04 L 873.379 1426.64 C 875.727 1422.87 879.195 1420.65 882.749 1417.88 z"/>
<path transform="translate(0,0)" fill="rgb(250,249,249)" d="M 1185.64 1423.34 C 1186.61 1423.92 1186.06 1423.44 1186.56 1425.33 C 1184.62 1430.67 1183.09 1432.45 1179.85 1436.95 C 1175.41 1438.03 1166.84 1439.03 1162.02 1439.72 C 1161.83 1444.03 1162.12 1449.44 1162.24 1453.83 L 1176.82 1450.06 C 1175.82 1455.57 1175.39 1462.27 1171.42 1465.84 C 1163.36 1466.42 1159.8 1470.37 1164.82 1477.69 C 1171.76 1481.28 1183.91 1477.42 1191.26 1475.28 L 1184.88 1490.6 C 1181.64 1491.36 1178.15 1492.02 1174.88 1492.7 C 1162.13 1494.37 1154.26 1495.32 1141.4 1494.87 C 1145.85 1483.49 1148.98 1477.19 1141.68 1468.91 C 1138.21 1464.96 1146.34 1455.34 1143.31 1445.1 C 1140.39 1442.88 1141.41 1443.56 1136.85 1443.65 L 1136.12 1442.49 C 1136.85 1438.15 1139.61 1434.46 1141.96 1430.61 C 1153.56 1427.6 1172.39 1425.9 1185.64 1423.34 z"/>
<path transform="translate(0,0)" fill="rgb(250,249,249)" d="M 1215.08 1415.24 C 1233.55 1413 1233.98 1416.44 1236.96 1432.75 C 1229.68 1429.46 1219.87 1424.25 1213.65 1431.78 C 1211.09 1442.84 1238.19 1443.16 1242.14 1454.9 C 1247 1469.33 1233.31 1478.3 1222.22 1483.47 C 1213.7 1486.25 1210.19 1486.18 1201.57 1485.88 L 1198.9 1468.68 C 1206.21 1471.74 1215.63 1474.53 1222.07 1467.72 C 1221.42 1459.59 1199.34 1456.49 1195.81 1445.38 C 1190.84 1429.74 1202.03 1420.74 1215.08 1415.24 z"/>
<path transform="translate(0,0)" fill="rgb(250,249,249)" d="M 839.711 1407.1 C 841.313 1406.98 842.92 1406.92 844.528 1406.93 C 855.545 1407.06 860.128 1410.62 867.415 1417.84 C 866.118 1422.85 864.183 1428.7 862.658 1433.74 C 859.43 1429.5 855.154 1423.17 850.227 1421.13 C 847.753 1420.11 841.158 1419.67 839.734 1422.81 C 841.433 1436.38 875.97 1457.15 839.232 1470.25 C 830.72 1471.55 810.594 1470.07 806.52 1461.28 C 806.777 1457.25 809.876 1450.13 811.455 1445.99 C 816.816 1452.85 822.347 1458.41 831.905 1456.53 L 833.013 1454.73 C 831.346 1441.51 801.444 1417.83 839.711 1407.1 z"/>
<path transform="translate(0,0)" fill="rgb(250,249,249)" d="M 1046.56 1434.33 L 1050.05 1434.11 L 1050.44 1435.3 C 1040.93 1456.21 1032.03 1476.28 1020.83 1496.38 C 1016.09 1497.73 1010.61 1498.68 1005.73 1499.66 C 1003.08 1488.46 999.231 1477.23 995.698 1466.24 C 992.926 1455.93 991.254 1448.9 989.419 1438.34 L 1007.83 1436 C 1010.87 1447.44 1014.5 1458.77 1018 1470.07 C 1023.31 1459.77 1028.75 1447.12 1033.65 1436.44 L 1046.56 1434.33 z"/>
<path transform="translate(0,0)" fill="rgb(250,249,249)" d="M 1108.63 1431.26 C 1113.23 1430.83 1118.54 1431.04 1123.21 1431.08 C 1124.51 1436.38 1125.68 1442 1126.88 1447.36 C 1122.19 1446.03 1117.83 1444.61 1112.95 1445.69 C 1107.75 1446.84 1103.29 1450.16 1100.69 1454.81 C 1095.41 1464.26 1097.94 1477.56 1108.02 1482.65 C 1115.79 1486.58 1122.47 1484 1130.2 1481.66 C 1129.96 1485.59 1129.52 1489.81 1129.19 1493.76 L 1128.42 1496.08 C 1127.62 1496.58 1126.03 1497.61 1125.08 1497.85 C 1106.22 1502.58 1086.28 1498.03 1080.25 1477 C 1077.6 1467.78 1078.72 1457.87 1083.37 1449.48 C 1089.4 1438.63 1097.42 1434.44 1108.63 1431.26 z"/>
<path transform="translate(0,0)" fill="rgb(67,147,107)" d="M 918.639 1213.32 C 929.721 1209.69 957.259 1207.23 961.061 1222.47 C 961.984 1226.23 961.281 1230.22 959.124 1233.44 C 953.37 1242.06 927.06 1240.57 918.672 1237.94 C 917.173 1230.21 917.957 1221.11 918.639 1213.32 z"/>
<path transform="translate(0,0)" fill="rgb(250,249,249)" d="M 924.011 1218.15 L 953.252 1218.24 L 953.19 1232.86 L 923.982 1232.87 L 924.011 1218.15 z"/>
<path transform="translate(0,0)" fill="rgb(250,249,249)" d="M 1066.65 1434.06 L 1068.09 1433.81 C 1069.63 1435.7 1068 1489.38 1068.04 1495.93 C 1062.33 1497.64 1056.34 1499.87 1050.68 1501.88 L 1050.01 1501.42 C 1049.53 1499.87 1051.91 1445.23 1052.15 1437.94 C 1058.57 1436.85 1060.53 1436.29 1066.65 1434.06 z"/>
</svg>
