<?xml version="1.0" encoding="UTF-8"?>
<!-- Created with Grafika (https://www.grafika.cc/) -->
<svg xmlns="http://www.w3.org/2000/svg" xmlns:svg="http://www.w3.org/2000/svg" xmlns:xlink="http://www.w3.org/1999/xlink" width="48" height="49" viewBox="0 0 48 49" preserveAspectRatio="xMidYMid meet">
	<defs>
		<clipPath id="mask_1">
			<rect x="0" y="0" width="48" height="49" />
		</clipPath>
		<linearGradient gradientUnits="userSpaceOnUse" gradientTransform="matrix(23.815168380737305, 0, 0, 23.55731201171875, 23.99993896484375, 23.55731201171875)" spreadMethod="pad" id="gradient_1" x1="-1" y1="0" x2="1" y2="0">
			<stop offset="0%" stop-color="#FF00B8" stop-opacity="1" />
			<stop offset="100%" stop-color="#4300FF" stop-opacity="1" />
		</linearGradient>
		<linearGradient gradientUnits="userSpaceOnUse" gradientTransform="matrix(123.59000396728516, 0, 0, 95.84131622314453, 0, 0)" spreadMethod="pad" id="gradient_2" x1="-1" y1="0" x2="1" y2="0">
			<stop offset="0%" stop-color="#0024FF" stop-opacity="1" />
			<stop offset="100%" stop-color="#FF00AD" stop-opacity="1" />
		</linearGradient>
	</defs>
	<g id="Circular-determinate progress indicator (4) (3).svg2" clip-path="url(#mask_1)">
		<path d="M18.59,2.68 C21.31,-0.89 26.69,-0.89 29.41,2.68 L27.82,3.89 L29.41,2.68 L29.93,3.36 C30.59,4.23 31.7,4.64 32.77,4.4 L33.61,4.21 C37.99,3.22 42.11,6.68 41.9,11.16 L41.86,12.02 C41.81,13.11 42.4,14.14 43.37,14.64 L44.13,15.03 C48.12,17.09 49.06,22.39 46.01,25.69 L45.43,26.32 C44.69,27.12 44.48,28.29 44.9,29.3 L45.23,30.09 C46.97,34.23 44.28,38.89 39.82,39.46 L38.97,39.57 C37.89,39.71 36.98,40.47 36.66,41.51 L36.4,42.33 C35.07,46.62 30.01,48.46 26.23,46.03 L27.17,44.57 L26.23,46.03 L25.51,45.57 L26.59,43.89 L25.51,45.57 C24.59,44.98 23.41,44.98 22.49,45.57 L21.77,46.03 C17.99,48.46 12.93,46.62 11.6,42.33 L11.34,41.51 C11.02,40.47 10.11,39.71 9.03,39.57 L8.18,39.46 C3.72,38.89 1.03,34.23 2.77,30.09 L3.1,29.3 L4.9,30.05 L3.1,29.3 C3.52,28.29 3.31,27.12 2.57,26.32 L1.99,25.69 C-1.06,22.39 -0.12,17.09 3.87,15.03 L4.63,14.64 C5.6,14.14 6.19,13.11 6.14,12.02 L6.1,11.16 C5.89,6.68 10.01,3.22 14.39,4.21 L15.23,4.4 C16.3,4.64 17.41,4.23 18.07,3.36 L19.34,4.33 L18.07,3.36 L18.59,2.68 L18.59,2.68 ZM26.23,5.1 C25.11,3.63 22.89,3.63 21.77,5.1 L21.25,5.79 C19.64,7.9 16.94,8.88 14.35,8.3 L13.51,8.11 C11.71,7.7 10.01,9.13 10.1,10.97 L10.14,11.83 C10.26,14.49 8.83,16.98 6.46,18.2 L5.7,18.59 C4.06,19.44 3.67,21.62 4.93,22.98 L5.51,23.61 C7.31,25.56 7.81,28.39 6.79,30.84 L6.46,31.63 C5.74,33.34 6.85,35.26 8.68,35.49 L9.53,35.6 C12.17,35.94 14.37,37.78 15.16,40.33 L15.42,41.14 C15.97,42.91 18.05,43.67 19.6,42.67 L20.32,42.2 C22.56,40.77 25.44,40.77 27.68,42.2 L26.74,43.66 L27.68,42.2 L28.4,42.67 L27.31,44.35 L28.4,42.67 C29.95,43.67 32.03,42.91 32.58,41.14 L32.84,40.33 C33.63,37.78 35.83,35.94 38.47,35.6 L39.32,35.49 C41.15,35.26 42.26,33.34 41.54,31.63 L41.21,30.84 C40.19,28.39 40.69,25.56 42.49,23.61 L43.07,22.98 L44.54,24.33 L43.07,22.98 C44.33,21.62 43.94,19.44 42.3,18.59 L41.54,18.2 C39.17,16.98 37.74,14.49 37.86,11.83 L37.9,10.97 C37.99,9.13 36.29,7.7 34.49,8.11 L33.65,8.3 C31.06,8.88 28.36,7.9 26.75,5.79 L28.34,4.57 L26.75,5.79 L26.23,5.1 L26.23,5.1 Z" fill-rule="evenodd" style="fill:url(#gradient_1);" />
	</g>
	<g transform="matrix(0.11460646986961365, 0, 0, 0.11460646986961365, 24, 24.5)">
		<path d="M-84.16,-53.39 Q-65.07,-53.39 -56.07,-45.63 Q-47.07,-37.92 -47.07,-23.89 Q-47.07,-17.8 -49.12,-12.1 Q-51.13,-6.43 -55.78,-1.91 Q-60.42,2.6 -67.98,5.13 Q-75.54,7.67 -86.37,7.67 L-95.21,7.67 L-95.21,44.15 L-110.87,44.15 L-110.87,-53.39 L-84.16,-53.39 ZM-85.18,-39.42 L-95.21,-39.42 L-95.21,-6.27 L-87.68,-6.27 Q-79.07,-6.27 -73.62,-8.03 Q-68.18,-9.79 -65.64,-13.48 Q-63.11,-17.16 -63.11,-23.37 Q-63.11,-31.51 -68.24,-35.45 Q-73.36,-39.42 -85.18,-39.42 ZM47.4,-5.53 Q47.4,10.71 41.31,21.82 Q35.22,32.91 23.85,38.54 Q12.48,44.15 -3.47,44.15 L-31.5,44.15 L-31.5,-53.39 L-0.72,-53.39 Q13.92,-53.39 24.75,-47.88 Q35.61,-42.4 41.5,-31.77 Q47.4,-21.13 47.4,-5.53 ZM31.09,-5.15 Q31.09,-17.13 27.22,-24.62 Q23.34,-32.15 15.88,-35.77 Q8.41,-39.42 -2.41,-39.42 L-15.83,-39.42 L-15.83,30.22 L-5.04,30.22 Q13.19,30.22 22.12,21.41 Q31.09,12.57 31.09,-5.15 ZM121.26,17.18 Q121.26,26.18 116.84,32.49 Q112.45,38.8 104.48,42.13 Q96.5,45.46 85.9,45.46 Q80.55,45.46 75.62,44.92 Q70.72,44.37 66.62,43.38 Q62.55,42.35 58.26,40.3 L58.26,24.8 Q65.49,28.07 72.32,29.73 Q79.17,31.37 86.41,31.37 Q93.01,31.37 97.27,29.73 Q101.56,28.07 103.58,25.15 Q105.63,22.21 105.63,18.2 Q105.63,14.17 103.93,11.48 Q102.23,8.75 97.72,6.26 Q93.23,3.73 84.84,0.71 Q78.66,-1.53 73.92,-4.19 Q69.18,-6.88 65.94,-10.4 Q62.71,-13.96 61.07,-18.5 Q59.44,-23.05 59.44,-28.88 Q59.44,-36.95 63.57,-42.75 Q67.7,-48.55 74.88,-51.59 Q82.09,-54.67 91.28,-54.67 Q99.22,-54.67 105.85,-53.16 Q112.48,-51.69 119.56,-48.55 L114.57,-34.84 Q107.97,-37.69 102.46,-39.07 Q96.95,-40.48 90.99,-40.48 Q85.48,-40.48 81.99,-38.94 Q78.53,-37.43 76.87,-34.84 Q75.2,-32.25 75.2,-28.75 Q75.2,-24.56 76.9,-21.87 Q78.6,-19.18 82.76,-16.84 Q86.96,-14.5 94.42,-11.65 Q102.88,-8.57 108.86,-4.92 Q114.85,-1.3 118.06,3.98 Q121.26,9.27 121.26,17.18 Z" fill="url(#gradient_2)" />
	</g>
</svg>